<?xml version="1.0" standalone="no"?>
<!DOCTYPE svg PUBLIC "-//W3C//DTD SVG 20010904//EN"
 "http://www.w3.org/TR/2001/REC-SVG-20010904/DTD/svg10.dtd">
<svg version="1.0" xmlns="http://www.w3.org/2000/svg"
 width="2532.000000pt" height="699.000000pt" viewBox="0 0 2532.000000 699.000000"
 preserveAspectRatio="xMidYMid meet">
<metadata>
Created by potrace 1.16, written by Peter Selinger 2001-2019
</metadata>
<g transform="translate(0.000000,699.000000) scale(0.100000,-0.100000)"
fill="#000000" stroke="none">
<path d="M6855 6098 c2 -7 27 -160 55 -339 l52 -327 -423 -1162 c-233 -639
-425 -1157 -427 -1151 -2 6 -52 245 -111 531 -60 286 -111 523 -114 527 -4 3
-407 -122 -897 -278 -792 -253 -890 -286 -889 -304 0 -11 35 -180 77 -375 l78
-355 2344 0 c1808 0 2390 3 2540 13 499 33 779 83 1101 195 354 124 632 266
876 448 118 87 366 334 447 442 207 278 385 651 442 927 28 134 24 347 -9 473
-30 115 -100 260 -162 340 -182 231 -533 358 -1103 397 -239 16 -3883 14
-3877 -2z m2745 -723 c271 -24 412 -70 508 -163 90 -88 124 -210 103 -376 -44
-341 -311 -734 -681 -1003 -160 -116 -351 -209 -590 -287 -235 -77 -312 -90
-567 -90 -122 -1 -225 2 -228 6 -4 4 154 438 351 965 l360 958 69 6 c104 10
487 1 675 -16z"/>
<path d="M12180 4498 c-333 -886 -611 -1617 -618 -1625 -11 -11 150 -13 961
-13 919 0 975 1 982 18 56 144 1205 3215 1205 3222 0 7 -330 10 -962 10 l-963
0 -605 -1612z"/>
<path d="M15157 6103 c-3 -5 -19 -62 -37 -128 -20 -74 -250 -693 -601 -1613
-313 -821 -569 -1495 -569 -1497 0 -3 440 -4 977 -3 l978 3 492 1270 c271 699
493 1273 495 1277 3 7 1056 42 1099 36 25 -3 -22 -56 -522 -603 -314 -343
-547 -606 -545 -615 1 -8 131 -320 287 -692 l284 -678 1295 0 1296 0 909 1064
c501 585 911 1062 913 1061 2 -2 432 -2110 432 -2120 0 -3 439 -5 976 -5 l977
0 -6 28 c-3 15 -159 741 -346 1614 -188 873 -341 1590 -341 1593 0 4 -336 4
-747 2 -812 -4 -786 -3 -953 -62 -157 -57 -308 -161 -464 -321 -56 -57 -567
-591 -1136 -1187 l-1035 -1083 -193 365 c-106 201 -191 370 -188 376 2 5 162
176 354 378 193 203 374 402 402 443 63 91 122 217 144 305 20 83 21 227 1
304 -67 254 -312 435 -660 485 -82 11 -3961 14 -3968 3z"/>
<path d="M4045 6085 c-193 -30 -339 -97 -502 -228 -47 -38 -594 -614 -1442
-1521 -751 -802 -1367 -1463 -1369 -1467 -2 -5 295 -9 661 -9 l665 0 44 53
c24 28 55 68 68 87 38 54 1128 1331 1165 1365 18 17 131 145 250 285 120 140
220 256 224 257 3 2 25 -88 49 -200 24 -111 50 -232 59 -269 l15 -68 960 0
c910 0 960 1 956 18 -2 9 -83 398 -179 864 l-174 848 -685 -1 c-501 -1 -707
-4 -765 -14z"/>
<path d="M20690 1984 c-161 -42 -298 -156 -370 -305 -51 -107 -70 -196 -70
-335 0 -206 54 -350 179 -474 120 -120 247 -170 431 -170 251 0 440 127 515
347 13 38 26 89 30 116 l6 47 -139 0 -139 0 -7 -41 c-15 -93 -93 -193 -171
-219 -51 -17 -190 -9 -233 14 -121 63 -192 204 -192 381 0 186 69 327 192 391
50 26 177 31 235 9 77 -30 163 -124 163 -180 0 -13 21 -15 141 -15 l141 0 -6
34 c-40 210 -186 361 -394 405 -73 15 -246 13 -312 -5z"/>
<path d="M6230 1350 l0 -620 140 0 140 0 0 255 0 255 260 0 260 0 0 110 0 110
-260 0 -260 0 0 140 0 140 300 0 300 0 0 115 0 115 -440 0 -440 0 0 -620z"/>
<path d="M9010 1350 l0 -620 140 0 140 0 0 620 0 620 -140 0 -140 0 0 -620z"/>
<path d="M11280 1350 l0 -620 130 0 130 0 2 404 3 404 250 -403 250 -404 143
-1 142 0 0 620 0 620 -130 0 -130 0 -2 -407 -3 -406 -251 404 -251 404 -141 3
-142 3 0 -621z"/>
<path d="M14421 1358 c-127 -337 -231 -616 -231 -621 0 -4 64 -6 142 -5 l141
3 46 130 46 130 229 0 229 0 45 -132 44 -133 149 0 149 0 -19 48 c-10 26 -114
305 -232 620 l-214 572 -146 0 -146 0 -232 -612z m452 71 c37 -108 67 -199 67
-203 0 -3 -65 -6 -145 -6 -80 0 -145 3 -145 8 0 22 144 412 150 405 4 -4 37
-96 73 -204z"/>
<path d="M17260 1350 l0 -620 130 0 130 0 2 407 3 407 252 -404 251 -405 141
-3 141 -3 0 621 0 620 -130 0 -130 0 -2 -404 -3 -404 -250 403 -250 404 -142
1 -143 0 0 -620z"/>
<path d="M23340 1350 l0 -620 475 0 475 0 0 120 0 120 -335 0 -335 0 0 145 0
145 300 0 300 0 0 110 0 110 -300 0 -300 0 0 130 0 130 330 0 330 0 0 115 0
115 -470 0 -470 0 0 -620z"/>
</g>
</svg>
